<?xml version="1.0" encoding="UTF-8" standalone="no"?>
<svg
   xmlns:dc="http://purl.org/dc/elements/1.1/"
   xmlns:cc="http://creativecommons.org/ns#"
   xmlns:rdf="http://www.w3.org/1999/02/22-rdf-syntax-ns#"
   xmlns:svg="http://www.w3.org/2000/svg"
   xmlns="http://www.w3.org/2000/svg"
   xmlns:sodipodi="http://sodipodi.sourceforge.net/DTD/sodipodi-0.dtd"
   xmlns:inkscape="http://www.inkscape.org/namespaces/inkscape"
   width="164.82935mm"
   height="63.616734mm"
   viewBox="0 0 164.82934 63.616732"
   version="1.1"
   id="svg81"
   sodipodi:docname="mys-white.svg"
   inkscape:version="1.0.1 (3bc2e813f5, 2020-09-07)">
  <sodipodi:namedview
     pagecolor="#ffffff"
     bordercolor="#666666"
     borderopacity="1"
     objecttolerance="10"
     gridtolerance="10"
     guidetolerance="10"
     inkscape:pageopacity="0"
     inkscape:pageshadow="2"
     inkscape:window-width="1600"
     inkscape:window-height="836"
     id="namedview18"
     showgrid="false"
     fit-margin-top="0"
     fit-margin-left="0"
     fit-margin-right="0"
     fit-margin-bottom="0"
     inkscape:zoom="0.54399178"
     inkscape:cx="243.89415"
     inkscape:cy="135.86306"
     inkscape:window-x="0"
     inkscape:window-y="27"
     inkscape:window-maximized="1"
     inkscape:current-layer="layer1" />
  <defs
     id="defs75">
    <rect
       x="-109.17789"
       y="-375.82596"
       width="414.26443"
       height="164.56119"
       id="rect2554" />
    <filter
       style="color-interpolation-filters:sRGB"
       id="filter883"
       x="-4.211592e-05"
       width="1.0000842"
       y="-9.7374599e-05"
       height="1.0001947">
      <feGaussianBlur
         stdDeviation="0.00148605"
         id="feGaussianBlur885" />
    </filter>
  </defs>
  <metadata
     id="metadata78">
    <rdf:RDF>
      <cc:Work
         rdf:about="">
        <dc:format>image/svg+xml</dc:format>
        <dc:type
           rdf:resource="http://purl.org/dc/dcmitype/StillImage" />
        <dc:title></dc:title>
      </cc:Work>
    </rdf:RDF>
  </metadata>
  <g
     id="layer1"
     transform="translate(457.12087,316.41132)">
    <path
       id="path97"
       style="fill:#ffffff;fill-opacity:1;stroke:none;stroke-width:2.72259;stroke-linecap:butt;stroke-linejoin:miter;stroke-miterlimit:4;stroke-dasharray:none;stroke-opacity:1"
       d="m -298.22816,-313.6649 c -8.31353,0.11512 -22.29433,7.49555 -22.29433,7.49555 -8.04166,2.8498 -31.96056,20.26386 -34.22633,33.55061 -2.23685,13.11722 4.5704,18.51582 20.05763,19.66747 15.48721,1.15165 18.98057,-10.96794 23.17218,-25.79064 4.1916,-14.8227 23.11723,-26.45906 18.50993,-32.98927 -1.00785,-1.42848 -2.89129,-1.96596 -5.21908,-1.93372 z m -12.98159,6.35682 a 2.4662178,2.4662178 0 0 1 2.46607,2.46627 2.4662178,2.4662178 0 0 1 -2.46607,2.46608 2.4662178,2.4662178 0 0 1 -2.46627,-2.46608 2.4662178,2.4662178 0 0 1 2.46627,-2.46627 z" />
    <path
       style="fill:none;stroke:#ffffff;stroke-width:4;stroke-linecap:round;stroke-linejoin:miter;stroke-miterlimit:4;stroke-dasharray:none;stroke-opacity:1"
       d="m -323.24936,-304.99063 c 0,0 -1.83197,-6.85809 -9.46582,-6.1988 -8.28313,0.71537 -14.02509,11.73803 -0.694,17.998"
       id="path924" />
    <path
       style="fill:none;stroke:#ffffff;stroke-width:4;stroke-linecap:round;stroke-linejoin:miter;stroke-miterlimit:4;stroke-dasharray:none;stroke-opacity:1"
       d="m -313.79354,-308.52283 c 0,0 -0.69936,-3.36064 -4.37471,-5.05799 -3.67534,-1.69735 -8.66936,-0.66299 -10.01015,2.08137"
       id="path926" />
    <path
       style="fill:none;stroke:#ffffff;stroke-width:4;stroke-linecap:round;stroke-linejoin:miter;stroke-miterlimit:4;stroke-dasharray:none;stroke-opacity:1"
       d="m -354.81054,-263.81952 c 0,0 -7.24875,3.90951 -10.9039,-1.15546 -3.65515,-5.06497 -0.2574,-10.44538 3.6098,-13.49971 4.23,-3.34086 14.79531,-9.14301 11.24195,-18.55286 -3.28249,-8.69252 -12.66876,-6.50662 -15.56013,-2.22471 -2.54584,3.77021 -1.47107,9.40129 3.4009,10.12728 4.87197,0.72599 6.30405,-3.71651 6.30405,-3.71651"
       id="path928" />
    <text
       xml:space="preserve"
       id="text2552"
       style="font-style:normal;font-weight:normal;font-size:50.8px;line-height:1.25;font-family:sans-serif;white-space:pre;shape-inside:url(#rect2554);fill:#ffffff;fill-opacity:1;stroke:none;filter:url(#filter883);"
       transform="translate(-352.00357,66.107017)"><tspan
         x="-109.17773"
         y="-328.45557"><tspan
           style="font-style:normal;font-variant:normal;font-weight:normal;font-stretch:normal;font-family:Ubuntu;-inkscape-font-specification:Ubuntu;fill:#ffffff;fill-opacity:1">mys</tspan></tspan></text>
  </g>
</svg>
